<?xml version="1.0" encoding="utf-8"?>
<!-- Generator: Adobe Illustrator 23.0.3, SVG Export Plug-In . SVG Version: 6.00 Build 0)  -->
<svg version="1.1" id="Layer_1" xmlns="http://www.w3.org/2000/svg" xmlns:xlink="http://www.w3.org/1999/xlink" x="0px" y="0px"
	 viewBox="0 0 200 200" style="enable-background:new 0 0 200 200;" xml:space="preserve">
<style type="text/css">
	.st0{fill:#5E889E;}
	.st1{display:none;}
	.st2{display:inline;fill:#5E889E;}
</style>
<g>
	<path class="st0" d="M94.8,164v-11.1c0-0.6-0.2-1.2-0.7-1.7c-0.5-0.5-1.1-0.7-1.7-0.7H59.4c-0.6,0-1.2,0.2-1.7,0.7
		c-0.5,0.5-0.7,1.1-0.7,1.7V164l-12.9,7.1c-0.1,0.1-0.2,0.2-0.3,0.3c-0.1,0.1-0.1,0.3-0.1,0.4v1.6c0,0.2,0.1,0.4,0.2,0.6
		s0.4,0.2,0.6,0.2h62.8c0.2,0,0.4-0.1,0.6-0.2c0.2-0.2,0.2-0.4,0.2-0.6v-1.6c0-0.1,0-0.3-0.1-0.4c-0.1-0.1-0.2-0.2-0.3-0.3L94.8,164
		z"/>
	<path class="st0" d="M150.1,47c-1.1-1.1-2.6-1.7-4-1.7H5.7c-1.5,0-2.9,0.6-4,1.7C0.6,48.1,0,49.6,0,51v90.8c0,1.5,0.6,2.9,1.7,4
		c1.1,1.1,2.6,1.7,4,1.7H146c1.5,0,2.9-0.6,4-1.7c1.1-1.1,1.7-2.6,1.7-4V51C151.8,49.6,151.2,48.1,150.1,47z M75.9,145.2
		c-1.4,0-2.5-1.1-2.5-2.5c0-1.4,1.1-2.5,2.5-2.5s2.5,1.1,2.5,2.5C78.4,144,77.3,145.2,75.9,145.2z M141.9,137.7H9.9V55.2h132V137.7z
		"/>
	<g>
		<path class="st0" d="M184.8,68.9H156v73c0,2.7-1,5.2-2.9,7.1c-1.9,1.9-4.4,2.9-7,2.9h-11.3v8.7c0,2.2,1.8,4,4,4h51.6
			c2.2,0,4-1.8,4-4V35.4c0-2.2-1.8-4-4-4h-51.6c-2.2,0-4,1.8-4,4v5.7h6.4c0,0,0,0,0-0.1c0-1.8,1.4-3.2,3.2-3.2h40.4
			c1.8,0,3.2,1.4,3.2,3.2c0,1.8-1.4,3.2-3.2,3.2h-31.5c1.5,1.6,2.5,3.7,2.7,5.9h28.8c1.8,0,3.2,1.4,3.2,3.2c0,1.8-1.4,3.2-3.2,3.2
			H156v5.9h28.7c1.8,0,3.2,1.4,3.2,3.2C188,67.4,186.5,68.9,184.8,68.9z M166.2,143.2c0,0.9-0.7,1.6-1.6,1.6c-0.9,0-1.6-0.7-1.6-1.6
			v-4.8c0-0.9,0.7-1.6,1.6-1.6c0.9,0,1.6,0.7,1.6,1.6V143.2z M164.6,131.1c-2.7,0-4.8-2.2-4.8-4.8c0-2.7,2.2-4.8,4.8-4.8
			c2.7,0,4.8,2.2,4.8,4.8C169.4,129,167.2,131.1,164.6,131.1z"/>
		<path class="st0" d="M190.4,25.7h-51.6c-5.3,0-9.6,4.3-9.6,9.6v5.7h4v-5.7c0-3.1,2.5-5.6,5.6-5.6h51.6c3.1,0,5.6,2.5,5.6,5.6
			v125.2c0,3.1-2.5,5.6-5.6,5.6h-51.6c-3.1,0-5.6-2.5-5.6-5.6v-8.7h-4v8.7c0,5.3,4.3,9.6,9.6,9.6h3.3v0.9c0,0.8,0.3,1.6,0.9,2.3
			c0.6,0.6,1.4,0.9,2.3,0.9h1.6c0.8,0,1.6-0.3,2.3-0.9c0.6-0.6,0.9-1.4,0.9-2.3v-0.9H179v0.9c0,0.8,0.3,1.6,0.9,2.3
			c0.6,0.6,1.4,0.9,2.3,0.9h1.6c0.8,0,1.6-0.3,2.3-0.9c0.6-0.6,0.9-1.4,0.9-2.3v-0.9h3.3c5.3,0,9.6-4.3,9.6-9.6V35.4
			C200,30.1,195.7,25.7,190.4,25.7z"/>
	</g>
	<g class="st1">
		<path class="st2" d="M89.9,96.2c-0.6-0.6-1.4-0.9-2.2-0.9c-0.8,0-1.6,0.3-2.2,0.9c-0.1-0.5-0.4-1-0.8-1.5
			c-0.6-0.6-1.4-0.9-2.2-0.9c-0.8,0-1.6,0.3-2.2,0.9c-0.1-0.5-0.4-1-0.8-1.5c-0.6-0.6-1.4-0.9-2.2-0.9c-0.7,0-1.4,0.2-2,0.7v-7.1
			c0-0.8-0.3-1.6-0.9-2.2c-0.6-0.6-1.4-0.9-2.2-0.9c-0.8,0-1.7,0.3-2.2,0.9c-0.6,0.6-0.9,1.4-0.9,2.2v17.7l-2.3-2.5
			c-0.6-0.6-1.3-1-2.1-1c-0.1,0-0.1,0-0.2,0c-0.8,0-1.5,0.3-2.1,0.8L62,101c-0.6,0.5-1,1.2-1.1,2c-0.1,0.8,0.1,1.6,0.6,2.2l8.4,11.9
			c0.1,0.8,0.5,1.5,1.1,2.1c0.7,0.7,1.7,1.1,2.7,1.1h10.7c1,0,2-0.4,2.7-1.1c0.7-0.7,1-1.5,1.1-2.4l2.1-7.2c0.2-0.6,0.3-1.1,0.4-1.7
			c0.1-0.6,0.1-1.2,0.1-1.7v-7.8C90.8,97.6,90.5,96.8,89.9,96.2z"/>
		<path class="st2" d="M61.9,82.7c0-5.6,4.6-10.2,10.2-10.2c5.6,0,10.2,4.6,10.2,10.2c0,3.7-2,7-5,8.8c0,0,0,0-0.1,0
			c-0.4,0-0.8,0.1-1.1,0.2V90c2.6-1.4,4.3-4.1,4.3-7.3c0-4.6-3.7-8.3-8.3-8.3c-4.6,0-8.3,3.7-8.3,8.3c0,3.1,1.8,5.8,4.3,7.3v2.1
			C64.4,90.6,61.9,87,61.9,82.7z M77.6,82.7c0-3.1-2.5-5.6-5.6-5.6c-3.1,0-5.6,2.5-5.6,5.6c0,1.5,0.6,2.9,1.6,3.9v-0.7
			c0-0.7,0.2-1.3,0.5-1.9c-0.1-0.4-0.2-0.8-0.2-1.2c0-2,1.7-3.7,3.7-3.7c2,0,3.7,1.7,3.7,3.7c0,0.4-0.1,0.8-0.2,1.2
			c0.3,0.6,0.5,1.2,0.5,1.9v0.8C77,85.6,77.6,84.3,77.6,82.7z"/>
	</g>
</g>
<g id="comp_x5F_45-bitcoin">
	<g>
		<path class="st0" d="M90,94.9c3.3-1.6,5.4-4.5,4.9-9.3c-0.6-6.6-6.3-8.8-13.7-9.4v-9.1h-5.8V76c-1.5,0-3,0-4.6,0.1v-8.9H65v9.1
			c-2.1,0.1-4.6,0-11.6,0v5.9c4.6-0.1,7-0.4,7.5,2.4v24.8c-0.3,2.2-2.2,1.9-6.4,1.8l-1.2,6.6c10.6,0,11.6,0,11.6,0v7.8h5.8V118
			c1.6,0,3.1,0,4.6,0v7.6h5.8v-7.8c9.7-0.5,16.2-2.8,17-11.6C98.9,99.3,95.5,96.2,90,94.9z M70.9,82.6c3.3,0,13.5-1,13.5,5.5
			c0,6.2-10.2,5.5-13.5,5.5V82.6z M70.9,111.3V99.2c3.9,0,15.9-1,15.9,6.1C86.8,112.1,74.9,111.3,70.9,111.3L70.9,111.3z"/>
	</g>
</g>
</svg>
