<?xml version="1.0" encoding="utf-8"?>
<!-- Generator: Adobe Illustrator 23.0.3, SVG Export Plug-In . SVG Version: 6.00 Build 0)  -->
<svg version="1.1" id="Layer_1" xmlns="http://www.w3.org/2000/svg" xmlns:xlink="http://www.w3.org/1999/xlink" x="0px" y="0px"
	 viewBox="0 0 200 200" style="enable-background:new 0 0 200 200;" xml:space="preserve">
<style type="text/css">
	.st0{fill:#5E889E;}
	.st1{display:none;}
	.st2{display:inline;fill:#5E889E;}
	.st3{display:inline;}
	.st4{display:none;fill:#FBFCF2;}
	.st5{opacity:0.15;}
	.st6{fill:#3F5A7C;}
	.st7{fill:#FFFFFF;}
	.st8{opacity:0.15;fill:#3F5A7C;enable-background:new    ;}
	.st9{fill:#2E576D;}
	.st10{display:none;fill:#2E576D;}
	.st11{display:none;fill:none;stroke:#2E576D;stroke-width:2;stroke-miterlimit:10;}
	.st12{fill-rule:evenodd;clip-rule:evenodd;fill:#5E889E;}
	.st13{opacity:0.5;fill:#8A7683;enable-background:new    ;}
	.st14{opacity:0.2;}
	.st15{display:none;fill:#FFFFFF;}
	.st16{fill:#E4BD62;}
	.st17{fill:#BB9054;}
	.st18{opacity:0.5;}
	.st19{fill:#A44C3E;}
	.st20{fill:#EFEFEF;}
</style>
<g>
	<path class="st0" d="M94.8,164v-11.1c0-0.6-0.2-1.2-0.7-1.7s-1.1-0.7-1.7-0.7h-33c-0.6,0-1.2,0.2-1.7,0.7s-0.7,1.1-0.7,1.7V164
		l-12.9,7.1c-0.1,0.1-0.2,0.2-0.3,0.3s-0.1,0.3-0.1,0.4v1.6c0,0.2,0.1,0.4,0.2,0.6s0.4,0.2,0.6,0.2h62.8c0.2,0,0.4-0.1,0.6-0.2
		c0.2-0.2,0.2-0.4,0.2-0.6v-1.6c0-0.1,0-0.3-0.1-0.4c-0.1-0.1-0.2-0.2-0.3-0.3L94.8,164z"/>
	<path class="st0" d="M150.1,47c-1.1-1.1-2.6-1.7-4-1.7H5.7c-1.5,0-2.9,0.6-4,1.7C0.6,48.1,0,49.6,0,51v90.8c0,1.5,0.6,2.9,1.7,4
		s2.6,1.7,4,1.7H146c1.5,0,2.9-0.6,4-1.7c1.1-1.1,1.7-2.6,1.7-4V51C151.8,49.6,151.2,48.1,150.1,47z M75.9,145.2
		c-1.4,0-2.5-1.1-2.5-2.5s1.1-2.5,2.5-2.5s2.5,1.1,2.5,2.5C78.4,144,77.3,145.2,75.9,145.2z M141.9,137.7H9.9V55.2h132V137.7z"/>
	<g>
		<path class="st0" d="M184.8,68.9H156v73c0,2.7-1,5.2-2.9,7.1c-1.9,1.9-4.4,2.9-7,2.9h-11.3v8.7c0,2.2,1.8,4,4,4h51.6
			c2.2,0,4-1.8,4-4V35.4c0-2.2-1.8-4-4-4h-51.6c-2.2,0-4,1.8-4,4v5.7h6.4c0,0,0,0,0-0.1c0-1.8,1.4-3.2,3.2-3.2h40.4
			c1.8,0,3.2,1.4,3.2,3.2s-1.4,3.2-3.2,3.2h-31.5c1.5,1.6,2.5,3.7,2.7,5.9h28.8c1.8,0,3.2,1.4,3.2,3.2s-1.4,3.2-3.2,3.2H156v5.9
			h28.7c1.8,0,3.2,1.4,3.2,3.2C188,67.4,186.5,68.9,184.8,68.9z M166.2,143.2c0,0.9-0.7,1.6-1.6,1.6c-0.9,0-1.6-0.7-1.6-1.6v-4.8
			c0-0.9,0.7-1.6,1.6-1.6c0.9,0,1.6,0.7,1.6,1.6V143.2z M164.6,131.1c-2.7,0-4.8-2.2-4.8-4.8c0-2.7,2.2-4.8,4.8-4.8
			c2.7,0,4.8,2.2,4.8,4.8C169.4,129,167.2,131.1,164.6,131.1z"/>
		<path class="st0" d="M190.4,25.7h-51.6c-5.3,0-9.6,4.3-9.6,9.6V41h4v-5.7c0-3.1,2.5-5.6,5.6-5.6h51.6c3.1,0,5.6,2.5,5.6,5.6v125.2
			c0,3.1-2.5,5.6-5.6,5.6h-51.6c-3.1,0-5.6-2.5-5.6-5.6v-8.7h-4v8.7c0,5.3,4.3,9.6,9.6,9.6h3.3v0.9c0,0.8,0.3,1.6,0.9,2.3
			c0.6,0.6,1.4,0.9,2.3,0.9h1.6c0.8,0,1.6-0.3,2.3-0.9c0.6-0.6,0.9-1.4,0.9-2.3v-0.9H179v0.9c0,0.8,0.3,1.6,0.9,2.3
			c0.6,0.6,1.4,0.9,2.3,0.9h1.6c0.8,0,1.6-0.3,2.3-0.9c0.6-0.6,0.9-1.4,0.9-2.3v-0.9h3.3c5.3,0,9.6-4.3,9.6-9.6V35.4
			C200,30.1,195.7,25.7,190.4,25.7z"/>
	</g>
	<g class="st1">
		<path class="st2" d="M89.9,96.2c-0.6-0.6-1.4-0.9-2.2-0.9c-0.8,0-1.6,0.3-2.2,0.9c-0.1-0.5-0.4-1-0.8-1.5
			c-0.6-0.6-1.4-0.9-2.2-0.9c-0.8,0-1.6,0.3-2.2,0.9c-0.1-0.5-0.4-1-0.8-1.5c-0.6-0.6-1.4-0.9-2.2-0.9c-0.7,0-1.4,0.2-2,0.7v-7.1
			c0-0.8-0.3-1.6-0.9-2.2s-1.4-0.9-2.2-0.9c-0.8,0-1.7,0.3-2.2,0.9c-0.6,0.6-0.9,1.4-0.9,2.2v17.7l-2.3-2.5c-0.6-0.6-1.3-1-2.1-1
			c-0.1,0-0.1,0-0.2,0c-0.8,0-1.5,0.3-2.1,0.8L62,101c-0.6,0.5-1,1.2-1.1,2s0.1,1.6,0.6,2.2l8.4,11.9c0.1,0.8,0.5,1.5,1.1,2.1
			c0.7,0.7,1.7,1.1,2.7,1.1h10.7c1,0,2-0.4,2.7-1.1s1-1.5,1.1-2.4l2.1-7.2c0.2-0.6,0.3-1.1,0.4-1.7s0.1-1.2,0.1-1.7v-7.8
			C90.8,97.6,90.5,96.8,89.9,96.2z"/>
		<path class="st2" d="M61.9,82.7c0-5.6,4.6-10.2,10.2-10.2s10.2,4.6,10.2,10.2c0,3.7-2,7-5,8.8c0,0,0,0-0.1,0
			c-0.4,0-0.8,0.1-1.1,0.2V90c2.6-1.4,4.3-4.1,4.3-7.3c0-4.6-3.7-8.3-8.3-8.3c-4.6,0-8.3,3.7-8.3,8.3c0,3.1,1.8,5.8,4.3,7.3v2.1
			C64.4,90.6,61.9,87,61.9,82.7z M77.6,82.7c0-3.1-2.5-5.6-5.6-5.6s-5.6,2.5-5.6,5.6c0,1.5,0.6,2.9,1.6,3.9v-0.7
			c0-0.7,0.2-1.3,0.5-1.9c-0.1-0.4-0.2-0.8-0.2-1.2c0-2,1.7-3.7,3.7-3.7s3.7,1.7,3.7,3.7c0,0.4-0.1,0.8-0.2,1.2
			c0.3,0.6,0.5,1.2,0.5,1.9v0.8C77,85.6,77.6,84.3,77.6,82.7z"/>
	</g>
</g>
<g id="comp_x5F_45-bitcoin" class="st1">
	<g class="st3">
		<path class="st0" d="M90,94.9c3.3-1.6,5.4-4.5,4.9-9.3c-0.6-6.6-6.3-8.8-13.7-9.4v-9.1h-5.8V76c-1.5,0-3,0-4.6,0.1v-8.9H65v9.1
			c-2.1,0.1-4.6,0-11.6,0v5.9c4.6-0.1,7-0.4,7.5,2.4v24.8c-0.3,2.2-2.2,1.9-6.4,1.8l-1.2,6.6c10.6,0,11.6,0,11.6,0v7.8h5.8V118
			c1.6,0,3.1,0,4.6,0v7.6h5.8v-7.8c9.7-0.5,16.2-2.8,17-11.6C98.9,99.3,95.5,96.2,90,94.9z M70.9,82.6c3.3,0,13.5-1,13.5,5.5
			c0,6.2-10.2,5.5-13.5,5.5V82.6z M70.9,111.3V99.2c3.9,0,15.9-1,15.9,6.1C86.8,112.1,74.9,111.3,70.9,111.3L70.9,111.3z"/>
	</g>
</g>
<title></title>
<g class="st1">
	<g id="Layer_1-2" class="st3">
		<path class="st4" d="M66.2,62.9c-7.5-0.2-14.6-3.6-21.1-7.3C36.3,50.7,27.3,44.9,17,45.2c-4.8,0.1-9.7,1.8-13.2,5.2
			C0,54.1-1.7,59.6-1.7,65c0,12.4,7.6,23.2,8.8,35.4c1.1,10.6-3.2,21.3-0.9,31.8c3.4,15.6,17.9,24.1,32.5,27.1
			c12.1,2.5,28.5,3.8,37.9-5.8c4.8-4.9,8.6-12.3,15.5-12.4c5.4-0.1,9.4,4.7,14,7.3c8,4.6,18.8,2.5,25.6-3.6
			c10.9-9.7,9.8-23.2,8.6-36.6c-0.7-7.7-0.2-15.5,1.4-23.1c1.6-7.5,5-14.9,2.7-22.7c-3.8-13-21.2-18.7-33.4-18.5
			c-9.2,0.2-18.2,3.1-26.3,7.5c-7.7,4.2-14.7,9.3-23.9,9.1"/>
		<g class="st5">
			<path class="st6" d="M58,128.3h44c0.8,0.1,3.1-0.1,3.9-0.1c11.7,0,19.7-9.2,19.7-21c0-11.7-9.5-21.2-21.3-21.2
				c-1.9,0-3.8,0.3-5.7,0.8c-1.6-10.4-10.5-18.1-21-18.1c-0.7,0-1.4,0-2.1,0.1c-8.2-8.4-21.6-8.6-30-0.4c-4.1,4-6.4,9.5-6.4,15.2
				c0,0.7,0,1.4,0.1,2.1h-0.1c-11.7,0-21.2,9.5-21.2,21.2s9.5,21.2,21.2,21.2c0,0,0,0,0,0L58,128.3z"/>
		</g>
		<path class="st7" d="M64.4,121h44c0.8,0.1,3.1-0.1,3.9-0.1c11.7,0,19.7-9.2,19.7-21c0-11.7-9.5-21.2-21.3-21.2
			c-1.9,0-3.8,0.3-5.7,0.8c-1.6-10.4-10.5-18.1-21-18.1c-0.7,0-1.4,0-2.1,0.1c-8.2-8.4-21.6-8.5-30-0.4c-4.1,4-6.4,9.5-6.4,15.2
			c0,0.7,0,1.4,0.1,2.1h-0.1c-11.7,0-21.2,9.5-21.2,21.2s9.5,21.2,21.2,21.2c0,0,0,0,0,0L64.4,121z"/>
		<path class="st8" d="M51.8,92.7c0,10.5,4.2,20.6,11.7,28l-16.9-0.1c-11.7,0-21.2-9.5-21.2-21.2c0-11.7,9.5-21.2,21.2-21.2h0.1
			c-0.1-0.7-0.1-1.4-0.1-2.1c0-11.7,9.5-21.2,21.3-21.2c2.8,0,5.5,0.6,8.1,1.6C61.3,62.6,51.8,76.9,51.8,92.7z"/>
		<path class="st9" d="M95.9,122.3c3.9,0,7.8,0,11.7,0c5.4,0,10.8-0.2,15.6-3c11.9-7.2,13.3-25,3.9-34.9c-5.7-6.1-14.4-8.3-22.4-6.2
			l1.6,0.9c-1.3-8.4-7.3-15.4-15.4-18c-1.2-0.4-2.5-0.7-3.8-0.8c-0.8-0.1-1.6-0.2-2.4-0.2c-0.7,0-1.7,0.2-2.3,0
			c-0.5-0.2-1.1-1-1.6-1.4c-0.6-0.4-1.1-0.9-1.7-1.3c-1.4-0.9-2.9-1.7-4.5-2.2c-3.1-1.1-6.3-1.6-9.6-1.3
			c-12.4,1-21.6,11.8-20.6,24.2c0,0.1,0,0.2,0,0.3l1.3-1.3C30.9,76.7,20,91.8,23.9,105.8c1.9,6.7,6.9,12.1,13.3,14.7
			c4.4,1.8,9,1.6,13.6,1.6l13.6,0.1c1.7,0,1.7-2.6,0-2.6c-6.5,0-13,0.1-19.5-0.1c-14.2-0.4-23.7-16-17.2-28.8
			c3.3-6.6,10.4-11.2,17.9-11c0.7,0,1.3-0.6,1.3-1.3c-0.9-10.6,6.4-20.3,17-21.8c6.1-0.9,12.1,1.2,16.6,5.4c1,0.9,1.4,0.8,2.8,0.8
			c4-0.1,7.9,0.9,11.2,3c5,3.1,8.4,8.3,9.2,14.1c0.1,0.7,1,1.1,1.6,0.9c13.9-3.7,26.9,7.9,25.1,22.2c-0.8,6.1-4.1,11.8-9.6,14.7
			c-4.2,2.2-9,2.2-13.6,2.2H95.9C94.2,119.7,94.2,122.3,95.9,122.3L95.9,122.3z"/>
		<polygon class="st9" points="26.5,89.9 37.3,89.9 37.3,88.4 27.4,88.4 		"/>
		<circle class="st9" cx="40" cy="89.2" r="3.1"/>
		<rect x="23.8" y="95.8" class="st9" width="29" height="1.5"/>
		<circle class="st9" cx="55.3" cy="96.5" r="3.1"/>
		<polygon class="st9" points="24.4,104.6 47.1,104.6 47.1,103.1 23.9,103.1 		"/>
		<circle class="st9" cx="49.3" cy="103.9" r="3.1"/>
		<polygon class="st9" points="28.5,112 53.5,112 53.5,110.5 27.2,110.5 		"/>
		<circle class="st9" cx="55.3" cy="111.2" r="3.1"/>
		<path id="BTC_alt" class="st9" d="M89,99.5c-0.8-0.6-1.7-0.9-2.7-1.2c0.7-0.4,1.3-0.9,1.9-1.5c0.5-0.8,0.8-1.7,0.9-2.6
			c0-0.6,0.2-3.2-1.9-4.7c-1.6-1.2-3.3-1.6-5.7-1.8v-5.3h-3.2v5.2h-2.4v-5.2h-3.2v5.2h-6.3V91h1.9c0.5,0,1.4,0.1,1.8,0.5
			c0.4,0.4,0.4,0.7,0.4,1.5c0,0.8,0,13.1,0,13.4c0,0.4-0.1,0.7-0.3,1c-0.3,0.3-0.5,0.3-1.2,0.3h-1.9l-0.7,3.9h6.3v5.2h3.2v-5.2h2.5
			v5.2h3.2v-5.2c0.8,0,1.6-0.1,2.1-0.2c1.8-0.2,3.5-0.7,4.9-1.7c1.9-1.4,2.4-3.5,2.4-5.7C90.9,101.8,90.1,100.4,89,99.5z M75.8,91.4
			c0,0,1-0.1,2-0.1c1.1,0,2.2,0.1,3.2,0.5c1.2,0.3,2.1,1.3,2.2,2.6c0.1,1-0.5,2-1.4,2.5c-1,0.5-2.2,0.8-3.3,0.8c-1.2,0-2.7,0-2.7,0
			L75.8,91.4z M83,106.9c-1.1,0.5-2.4,0.8-3.6,0.9c-1.4,0.1-3.6,0.1-3.6,0.1v-7c0,0,2-0.1,3.6,0c1.2,0.1,2.4,0.3,3.5,0.8
			c1.4,0.7,2.1,2.4,1.4,3.8C84.1,106.1,83.6,106.5,83,106.9L83,106.9z"/>
		<circle class="st10" cx="25.9" cy="65.7" r="1.9"/>
		<circle class="st11" cx="32.4" cy="128.9" r="1.9"/>
		<path class="st10" d="M21.2,77.5v3.4c0,0.4,0.3,0.6,0.6,0.6c0.4,0,0.6-0.3,0.6-0.6v-3.4c0-0.4-0.3-0.6-0.6-0.6
			C21.5,76.8,21.2,77.1,21.2,77.5z"/>
		<path class="st10" d="M23.6,78.6h-3.4c-0.4,0-0.6,0.3-0.6,0.6s0.3,0.6,0.6,0.6h3.4c0.4,0,0.6-0.3,0.6-0.6S23.9,78.6,23.6,78.6z"/>
		<circle class="st11" cx="121.5" cy="61.4" r="1.9"/>
		<circle class="st10" cx="123.2" cy="127.6" r="1.9"/>
		<path class="st10" d="M116.7,133v3.4c0,0.4,0.3,0.6,0.6,0.6s0.6-0.3,0.6-0.6V133c0-0.4-0.3-0.6-0.6-0.6S116.7,132.7,116.7,133z"/>
		<path class="st10" d="M119.1,134.1h-3.4c-0.4,0-0.6,0.3-0.6,0.6s0.3,0.6,0.6,0.6h3.4c0.4,0,0.6-0.3,0.6-0.6
			S119.5,134.1,119.1,134.1z"/>
	</g>
</g>
<title></title>
<desc></desc>
<g id="Classic" class="st1">
	<g id="Bitcoin" transform="translate(-328.000000, -409.000000)" class="st3">
		<g transform="translate(300.000000, 381.000000)">
			<path class="st12" d="M101.8,125l4.7,1.3c2.2,0.6,3.1,2.4,2.5,4.5c-0.4,1.5-1.4,2.7-2.8,2.9c-0.5,0.1-1.2,0-1.8-0.2l-4.5-1.2
				L101.8,125z M110.2,117.1c0.8,0.8,1,1.9,0.7,3.1c-0.5,1.9-1.9,2.9-3.8,2.4l-4.3-1.1l1.7-6.3l3.8,1
				C109,116.4,109.7,116.7,110.2,117.1z M103.8,137.1c-0.7,2.4-1,3.6-1,3.6s-0.8-0.2-2.4-0.7l1-3.6l-2.6-0.7c-0.7,2.4-1,3.6-1,3.6
				s-0.8-0.2-2.4-0.7l1-3.6c-3.3-0.9-4.9-1.3-4.9-1.3s0.3-1.1,0.9-3.3l1.5,0.4c0.8,0.2,1.5-0.3,1.7-1l4-14.7c0.2-0.8-0.3-1.5-1-1.7
				c-1-0.3-1.5-0.4-1.5-0.4s0.3-1.1,0.9-3.3l4.9,1.3c0.7-2.4,1-3.6,1-3.6s0.8,0.2,2.4,0.7l-1,3.6l2.6,0.7c0.7-2.4,1-3.6,1-3.6
				s0.8,0.2,2.4,0.7l-1,3.7c1.2,0.4,2.2,0.8,3.1,1.5c2,1.4,2.9,3.9,2.2,6.6c-0.6,2.3-2.2,3.9-4.4,4.4c2.5,1.6,3,4.3,2.4,6.8
				c-0.9,3.3-3.8,5.1-6.6,5.2C105.8,137.5,104.9,137.4,103.8,137.1z M79.1,117.5c-3.7,13.7,4.5,27.7,18.1,31.4
				c13.7,3.7,27.7-4.5,31.4-18.1c3.7-13.7-4.5-27.7-18.1-31.4C96.9,95.8,82.8,103.9,79.1,117.5z"/>
		</g>
	</g>
</g>
<title></title>
<g>
	<g id="Layer_1-2_1_">
		<path class="st4" d="M71.5,90.4c-3.2-0.1-6.1-1.3-8.9-2.6c-3.7-1.8-7.4-3.8-11.8-3.7c-2,0.1-4.1,0.6-5.5,1.9
			c-1.6,1.3-2.3,3.3-2.3,5.2c0,4.5,3.2,8.3,3.7,12.7c0.5,3.8-1.4,7.6-0.4,11.4c1.5,5.6,7.5,8.6,13.7,9.7c5.1,0.9,12,1.4,15.9-2.1
			c2-1.7,3.6-4.4,6.5-4.4c2.3,0,3.9,1.7,5.9,2.6c3.4,1.6,7.9,0.9,10.8-1.3c4.6-3.5,4.1-8.3,3.6-13.1c-0.3-2.8-0.1-5.6,0.6-8.3
			c0.7-2.7,2.1-5.3,1.1-8.1c-1.6-4.7-8.9-6.7-14-6.6c-3.9,0.1-7.6,1.1-11,2.7c-3.2,1.5-6.2,3.3-10,3.2"/>
		<circle class="st11" cx="91.9" cy="92" r="0.9"/>
		<circle class="st10" cx="94.4" cy="112.8" r="0.9"/>
		<path class="st10" d="M90.6,113.1l-0.9,1.2c-0.2,0.3,0.3,0.6,0.5,0.3l0.9-1.2C91.3,113.1,90.8,112.8,90.6,113.1L90.6,113.1z"/>
		<path class="st10" d="M91.2,114.1l-1.2-0.9c-0.3-0.2-0.6,0.3-0.3,0.5l1.2,0.9C91.2,114.8,91.5,114.3,91.2,114.1L91.2,114.1z"/>
		<path class="st8" d="M87.2,106.4c0,0.2,0,0.4,0,0.6c-0.1,3.9-1.2,7.7-3.2,11c-0.2,0.3-0.4,0.6-0.6,0.9c-0.3,0.5-0.7,0.9-1,1.4
			c-7.7,9.8-21.9,11.6-31.7,3.9c-9.8-7.7-11.6-21.9-3.9-31.7c0.6-0.7,1.2-1.4,1.8-2.1c0.4-0.4,0.9-0.8,1.3-1.2
			c0.2-0.2,0.5-0.4,0.7-0.6c6.5-5.1,15.3-6.2,22.9-2.9c0.6,0.3,1.3,0.6,1.9,0.9c0.3,0.2,0.6,0.3,0.8,0.5l0.1,0.6l-0.8,1l-1.5,1.8
			l1.2,5.1l5.3-2.5l0.7-1.8c0.6,0.6,1.1,1.3,1.6,2l0.1,0.2C85.7,97.2,87.2,101.7,87.2,106.4z"/>
		<path class="st0" d="M89.7,103.1c0,12-9.5,21.8-21.4,22.2c-0.3,0-0.5,0-0.8,0c-0.4,0-0.8,0-1.3,0c-12.3-0.7-21.6-11.2-20.9-23.5
			C46,89.6,56.5,80.2,68.7,80.9c2.3,0.1,4.5,0.6,6.6,1.4l0,0.2l0.2,1.2l0.6,3.2l0,0.1v0.1l0.1,0.6l-0.8,1l-1.5,1.8l1.2,5.1l5.3-2.5
			l0.7-1.8l0-0.1l0,0l0.8-2.1l0.7-1.7h0.1C87.2,91.4,89.7,97.1,89.7,103.1z"/>
		<path class="st13" d="M68.2,125.5c-0.4,0-0.8,0-1.2,0c-12.3,0-22.2-9.9-22.2-22.2S54.8,81.1,67,81.1c0.4,0,0.8,0,1.2,0
			c-12.3,0.6-21.7,11.1-21,23.4C47.8,115.8,56.8,124.9,68.2,125.5z"/>
		<path class="st13" d="M67.3,81.2c-0.3,0-0.6-0.1-0.9-0.1C66.7,81.1,67,81.1,67.3,81.2c0.1-0.1,0.2-0.1,0.2-0.1
			c2.7,0,5.3,0.5,7.9,1.4l0.2,1.2C73,82.3,70.2,81.4,67.3,81.2z"/>
		<path class="st13" d="M89.8,103.3c0,12.3-10,22.2-22.2,22.2c-0.1,0-0.2,0-0.2,0c-0.3,0-0.6,0-0.9,0c0.3,0,0.6,0,0.9-0.1
			c0.3,0,0.7-0.1,1-0.1c12.2-1.7,20.7-12.9,19-25c-0.6-4.2-2.3-8.1-5.1-11.4l0.7-1.7C87.3,91.4,89.8,97.2,89.8,103.3L89.8,103.3z"/>
		<path class="st0" d="M85.8,103.1c0,10.1-8.2,18.4-18.4,18.4s-18.4-8.2-18.4-18.4c0-4.1,1.4-8.1,3.9-11.3l0.1-0.1
			c5.3-6.8,14.7-8.9,22.4-5.2c0.3,0.1,0.6,0.3,0.8,0.4V87l0.1,0.6l-0.8,1l-1.5,1.8l1.2,5.1l5.3-2.5l0.7-1.8l0-0.1
			C84.2,94.4,85.8,98.7,85.8,103.1z"/>
		<g class="st14">
			<path class="st6" d="M85.6,103c-0.1,9.9-8.1,18-18.1,18.1c-0.2,0-0.3,0.1-0.3,0.3c0,0.2,0.1,0.3,0.3,0.3
				c10.3-0.1,18.6-8.4,18.7-18.7c0-0.2-0.1-0.3-0.3-0.3C85.8,102.7,85.6,102.8,85.6,103z"/>
		</g>
		<path class="st10" d="M50,100.1c1.5-8.6,8.9-14.8,17.6-14.9c0.7,0,0.7-1.2,0-1.2c-9.2,0.1-17.1,6.7-18.7,15.8
			C48.7,100.5,49.9,100.8,50,100.1L50,100.1z"/>
		<path class="st10" d="M49.8,103c0-0.3,0-0.6,0-0.9c0-0.3-0.3-0.6-0.6-0.6c-0.3,0-0.6,0.3-0.6,0.6c0,0.3,0,0.6,0,0.9
			c0,0.3,0.3,0.6,0.6,0.6S49.8,103.3,49.8,103z"/>
		<path class="st10" d="M84.6,117.1c-6,7.3-16.1,10.1-25,6.7c-7.8-2.9-13.5-10.3-14.3-18.6c-0.5-5.7,1.2-11.5,4.7-16
			c0.5-0.6-0.4-1.4-0.8-0.8c-6.2,7.8-6.9,18.9-1.4,27.3c7,10.8,21.4,13.9,32.3,6.9c2-1.3,3.8-2.9,5.3-4.7
			C85.9,117.4,85.1,116.6,84.6,117.1L84.6,117.1z"/>
		<path class="st10" d="M83.4,87.7c5.3,5.5,7.4,13.4,5.6,20.8c-0.2,0.7,0.9,1,1.1,0.3c1.9-7.8-0.3-16.1-5.9-22
			C83.7,86.3,82.9,87.2,83.4,87.7L83.4,87.7z"/>
		<path class="st10" d="M56.8,83.8c5.6-3,12.2-3.5,18.2-1.4c0.7,0.3,1-0.9,0.3-1.1c-6.3-2.2-13.2-1.7-19.1,1.5
			C55.6,83.2,56.2,84.2,56.8,83.8L56.8,83.8z"/>
		<path id="BTC_alt_1_" class="st7" d="M73.3,103.1c-0.5-0.3-1-0.5-1.5-0.7c0,0,0.7-0.4,1.1-0.9c0.3-0.4,0.4-0.9,0.5-1.5
			c0-0.4,0.1-1.8-1.1-2.7c-0.9-0.7-1.9-0.9-3.2-1v-3h-1.8v2.9h-1.4v-2.9h-1.8v2.9h-3.6v1.9h1c0.3,0,0.8,0,1,0.3
			c0.2,0.2,0.3,0.4,0.3,0.8s0,7.4,0,7.6c0,0.2-0.1,0.4-0.2,0.5c-0.2,0.1-0.3,0.2-0.7,0.2h-1.1l-0.4,2.2h3.6v2.9h1.8v-2.9h1.4v2.9
			h1.8v-3c0.5,0,0.9-0.1,1.2-0.1c0.5-0.1,1.7-0.2,2.8-1c1.1-0.8,1.3-2,1.4-3.2C74.4,104.4,73.9,103.5,73.3,103.1z M65.9,98.4
			c0,0,0.6-0.1,1.1,0c0.6,0,1.2,0.1,1.8,0.3c0.7,0.2,1.2,0.8,1.2,1.5c0,0.6-0.3,1.1-0.8,1.4c-0.6,0.3-1.2,0.4-1.9,0.5
			c-0.7,0-1.5,0-1.5,0L65.9,98.4z M69.9,107.2c-0.4,0.2-1.2,0.4-2,0.5c-0.8,0.1-2,0-2,0v-3.9c0,0,1.2-0.1,2,0c0.7,0,1.4,0.2,2,0.5
			c0.6,0.2,0.9,0.8,0.9,1.4C70.8,106.6,70.3,106.9,69.9,107.2L69.9,107.2z"/>
		<path class="st15" d="M81.8,94.4c0.9,1.2,1.5,2.5,1.9,3.9c0.1,0.4,0.6,0.2,0.6-0.2c-0.4-1.5-1-2.8-1.9-4
			C82.1,93.8,81.6,94.1,81.8,94.4L81.8,94.4z"/>
		<circle class="st10" cx="47.4" cy="85.4" r="0.9"/>
		<circle class="st11" cx="41.8" cy="116.4" r="0.9"/>
		<path class="st10" d="M41.6,91.5V93c0,0.2,0.1,0.3,0.3,0.3c0.2,0,0.3-0.1,0.3-0.3v-1.5c0-0.2-0.1-0.3-0.3-0.3
			C41.8,91.2,41.6,91.3,41.6,91.5z"/>
		<path class="st10" d="M42.7,92h-1.5c-0.2,0-0.3,0.1-0.3,0.3s0.1,0.3,0.3,0.3h1.5c0.2,0,0.3-0.1,0.3-0.3S42.9,92,42.7,92z"/>
		<g id="_Group_">
			<path id="_Path_" class="st16" d="M88.2,74.5l1.4-1.5c0.3-0.4,0.9-0.4,1.2-0.1l27.2,25c0.4,0.3,0.4,0.9,0.1,1.2l-1.4,1.5
				c-0.3,0.4-0.9,0.4-1.2,0.1l-27.2-25C87.8,75.4,87.8,74.9,88.2,74.5z"/>
		</g>
		<path class="st17" d="M88.8,73.8l28.5,26.2l0.9-1c0.3-0.3,0.2-0.7,0-1L90.7,72.8c-0.3-0.3-0.8-0.3-1,0c0,0,0,0,0,0L88.8,73.8z"/>
		<g class="st18">
			<path class="st19" d="M97.3,81.9c1,0.9,2.1,1.7,3.1,2.6c0.5,0.5,1,1,1.4,1.4l0.7,0.7c0.1,0.1,0.7,0.6,0.4,0.3
				c-0.8-0.9-1.9-1.6-2.8-2.4c-1-0.9-1.9-1.8-2.8-2.8c-0.1-0.1-0.2,0-0.1,0.1c1.8,2,3.8,3.8,5.9,5.5c0.1,0.1,0.2,0,0.1-0.1
				c-1.9-1.9-3.8-3.7-5.8-5.4C97.3,81.7,97.2,81.8,97.3,81.9L97.3,81.9z"/>
		</g>
		<g class="st18">
			<path class="st19" d="M110,95.4c1,0.9,2.1,1.7,3.1,2.6c0.5,0.5,1,1,1.4,1.4l0.7,0.7c0.1,0.1,0.7,0.6,0.4,0.3
				c-0.8-0.9-1.9-1.6-2.8-2.4c-1-0.9-1.9-1.8-2.8-2.8c-0.1-0.1-0.2,0-0.1,0.1c1.8,2,3.8,3.8,5.9,5.5c0.1,0.1,0.2,0,0.1-0.1
				c-1.9-1.9-3.8-3.7-5.8-5.4C110,95.3,109.9,95.4,110,95.4L110,95.4z"/>
		</g>
		<g class="st18">
			<path class="st19" d="M88.9,73.6c1.8,2.2,3.9,4.2,6.1,6.1c2.3,1.9,4.7,3.6,6.8,5.8c2,2,3.7,4.3,5.7,6.3c2,2,4,3.8,6.2,5.5
				c0.1,0.1,0.1-0.1,0.1-0.1c-2.3-1.8-4.5-3.7-6.6-5.8c-1.9-2-3.6-4.2-5.6-6.1c-2-2-4.4-3.7-6.6-5.5c-2.2-1.8-4.2-3.9-6.1-6.1
				C88.9,73.4,88.8,73.5,88.9,73.6L88.9,73.6z"/>
		</g>
		<g class="st18">
			<path class="st19" d="M94.6,79.7c3.3,4.1,7.6,7,11.2,10.8c3.5,3.6,6.8,7.3,11,10c0.1,0.1,0.2-0.1,0.1-0.1
				c-4.3-2.8-7.7-6.6-11.3-10.3c-1.8-1.8-3.8-3.4-5.7-5.1c-1.9-1.7-3.7-3.5-5.3-5.4C94.6,79.5,94.5,79.7,94.6,79.7L94.6,79.7z"/>
		</g>
		<g class="st18">
			<path class="st19" d="M88.5,74.3c2,2.7,4.7,4.7,7,7.2c2.3,2.6,4.5,5.1,7.3,7.1c0.1,0.1,0.1-0.1,0.1-0.1c-2.8-2-5-4.6-7.3-7.1
				c-2.2-2.5-4.9-4.4-6.9-7.1C88.5,74.1,88.4,74.2,88.5,74.3L88.5,74.3z"/>
		</g>
		<g class="st18">
			<path class="st19" d="M112.4,95.1c2,1.2,3.4,3,5.1,4.6c0.1,0.1,0.2,0,0.1-0.1c-1.7-1.6-3.1-3.4-5.1-4.7
				C112.4,95,112.4,95,112.4,95.1C112.4,95.1,112.4,95.1,112.4,95.1L112.4,95.1z"/>
			<path class="st19" d="M112.3,95.1c1.4,1.9,3.3,3.3,5.2,4.7c0.1,0.1,0.1-0.1,0.1-0.1c-1.9-1.4-3.7-2.8-5.2-4.7
				C112.4,94.9,112.3,95,112.3,95.1L112.3,95.1z"/>
		</g>
		<g class="st18">
			<path class="st19" d="M105,87.9c2,1.2,3.4,3,5.1,4.6c0.1,0.1,0.2,0,0.1-0.1c-1.7-1.6-3.1-3.4-5.1-4.7C105,87.8,105,87.8,105,87.9
				C105,87.9,105,87.9,105,87.9L105,87.9z"/>
			<path class="st19" d="M104.9,87.9c1.4,1.9,3.3,3.3,5.2,4.7c0.1,0.1,0.1-0.1,0.1-0.1c-1.9-1.4-3.7-2.8-5.2-4.7
				C105,87.7,104.9,87.8,104.9,87.9L104.9,87.9z"/>
		</g>
		<g class="st18">
			<path class="st19" d="M89.7,72.9c1.9,2,3.9,4,6.4,5.3c0.1,0,0.2-0.1,0.1-0.1c-2.5-1.3-4.4-3.3-6.4-5.3
				C89.7,72.7,89.6,72.8,89.7,72.9L89.7,72.9z"/>
			<path class="st19" d="M93,76.5c0.4,0.4,0.9,0.8,1.4,1.2c0.6,0.4,1.3,0.7,2,1.1c0.1,0,0.2-0.1,0.1-0.1c-0.6-0.3-1.2-0.6-1.8-0.9
				c-0.6-0.4-1.1-0.8-1.6-1.3C93.1,76.4,92.9,76.5,93,76.5L93,76.5z"/>
		</g>
		<g class="st18">
			<path class="st19" d="M96.1,79.4c1.2,1,2.4,1.9,3.7,2.7c1.5,0.9,2.7,2.1,4,3.3c0.1,0.1,0.2,0,0.1-0.1c-1.1-1-2.2-2.1-3.4-3
				c-1.5-1-2.9-1.9-4.3-3C96.1,79.3,96,79.4,96.1,79.4L96.1,79.4z"/>
		</g>
		<g class="st18">
			<path class="st19" d="M103.5,86c1.2,1,2.4,1.9,3.7,2.7c1.5,0.9,2.7,2.1,4,3.3c0.1,0.1,0.2,0,0.1-0.1c-1.1-1-2.2-2.1-3.4-3
				c-1.5-1-2.9-1.9-4.3-3C103.5,85.8,103.4,85.9,103.5,86L103.5,86z"/>
		</g>
		<g class="st18">
			<path class="st19" d="M109.3,92.5c1.2,0.8,2.4,1.5,3.7,2.1c1.5,0.7,2.8,1.8,4.1,2.8c0.1,0.1,0.2,0,0.1-0.1c-1.2-1-2.5-2-3.8-2.7
				c-1.4-0.7-2.7-1.3-4-2.2C109.3,92.3,109.2,92.5,109.3,92.5L109.3,92.5z"/>
		</g>
		<polygon class="st7" points="109.2,94.8 109.1,95 109,94.9 109.2,94.7 		"/>
		<g id="_Group_2">
			<g id="_Group_3">
				<path class="st9" d="M88.4,75.1c0.4-0.4,1.4-2,1.9-1.8c0.4,0.2,1,0.9,1.3,1.2l6.1,5.6l15.8,14.6l2.6,2.4c0.4,0.4,1,0.7,1.3,1.2
					s0.1,0.8-0.2,1.1c-0.3,0.4-0.9,1.3-1.5,1c-0.4-0.2-0.8-0.7-1.1-1l-14.1-12.9l-7.7-7.1l-2.7-2.5c-0.5-0.4-1.1-0.9-1.5-1.4
					c-0.1-0.2-0.3-0.1-0.1-0.4c0.4-0.6-0.6-1.2-1-0.6c-0.6,0.9,0,1.5,0.6,2.1l2.1,1.9l7.5,6.9l15.7,14.5c0.5,0.4,1,0.9,1.5,1.3
					c1.3,1.2,2.3,0,3.3-1c0.8-0.9,1-1.9,0.1-2.8c-0.6-0.5-1.2-1.1-1.7-1.6l-16-14.7l-7.2-6.6c-0.6-0.6-1.2-1.1-1.8-1.7
					c-0.7-0.7-1.5-0.8-2.2,0c-0.5,0.5-1,1.1-1.5,1.6C87.1,74.8,87.9,75.6,88.4,75.1z"/>
			</g>
		</g>
		<path class="st20" d="M93.8,74.4c0.2,0.2,0.2,0.6,0,0.8l-3.7,3.7c-0.2,0.2-0.6,0.2-0.8,0L88,77.6l-8.5,8.5
			c-0.1-0.9,0.2-2.2,0.9-3.7c0.9-2,2.5-4.4,4.4-6.7l0.5-0.6l-1.5-1.5c-0.2-0.2-0.2-0.6,0-0.8l3.7-3.7c0.2-0.2,0.6-0.2,0.8,0l1.5,1.5
			l0.6-0.5c4-3.3,7.8-5.4,10.1-5.4c0.1,0,0.2,0,0.3,0l-8.5,8.5L93.8,74.4z"/>
		<path class="st7" d="M85.1,73.2c-0.2,0.2-0.2,0.6,0,0.8l1.5,1.5l-0.5,0.6c-2,2.3-3.5,4.7-4.4,6.7c-0.3,0.6-0.5,1.3-0.7,2L79.8,86
			c-0.1-0.9,0.2-2.2,0.9-3.7c0.9-2,2.5-4.4,4.4-6.7l0.5-0.6l-1.5-1.5c-0.2-0.2-0.2-0.6,0-0.8l3.7-3.7c0.2-0.2,0.6-0.2,0.8,0l0.5,0.5
			c-0.1,0-0.2,0.1-0.3,0.2L85.1,73.2z"/>
		<path class="st9" d="M93.3,74.5c0.2,0.3-2.3,2.5-2.7,2.9c-0.2,0.2-0.7,0.9-1,1c-0.3,0-1.1-1.1-1.3-1.3c-0.2-0.2-0.6-0.2-0.8,0
			l-8.5,8.5l1,0.4c-0.1-2.1,1.1-4.2,2.2-5.8c1.1-1.7,2.3-3.3,3.6-4.8c0.2-0.2,0.2-0.6,0-0.8c-0.3-0.3-1.5-1.2-1.4-1.5
			c0-0.2,0.5-0.5,0.6-0.6l1.2-1.2l1.1-1.1c0.1-0.1,0.5-0.7,0.7-0.7c0.3-0.1,1.2,1.1,1.5,1.4c0.2,0.2,0.6,0.2,0.8,0
			c1.7-1.4,3.4-2.8,5.3-3.9c1.6-0.9,3.5-2,5.4-1.9l-0.4-1l-8.5,8.5c-0.2,0.2-0.2,0.6,0,0.8l1.3,1.3c0.5,0.5,1.3-0.3,0.8-0.8
			l-1.3-1.3v0.8l8.5-8.5c0.2-0.2,0.2-0.6,0-0.8c-0.1-0.1-0.3-0.2-0.4-0.2c-2-0.1-4,0.9-5.7,1.9c-2.1,1.2-4,2.7-5.8,4.2h0.8
			c-0.6-0.6-1.6-2.1-2.7-1.8c-0.4,0.1-0.6,0.5-0.9,0.7l-1.4,1.4l-1.4,1.4c-0.3,0.3-0.6,0.5-0.7,0.9c-0.4,1,1.1,2,1.8,2.7v-0.8
			c-1.4,1.7-2.8,3.4-3.9,5.3c-1.1,1.8-2.3,4-2.1,6.1c0,0.3,0.3,0.6,0.6,0.6c0.1,0,0.3-0.1,0.4-0.2l8.5-8.5h-0.8
			c0.5,0.5,1.2,1.5,2,1.6s1.3-0.7,1.8-1.2l2.3-2.3c0.6-0.6,1.3-1.2,0.7-2.1C93.9,73.3,92.9,73.9,93.3,74.5z"/>
		<line class="st11" x1="75.4" y1="82.3" x2="75.2" y2="81.7"/>
		<path class="st10" d="M74.7,82.1l1.3,5.5l0.1-0.6l-1.7,2.1c-0.4,0.5-1.1,1-1,1.7c0.2,1.6,0.8,3.3,1.1,4.9c0.1,0.4,0.5,0.5,0.8,0.3
			l3-1.4l1.9-0.9c0.3-0.1,0.5-0.2,0.7-0.5c0.2-0.3,0.4-0.7,0.5-1l1-2l1.4-2.9c0.3-0.7-0.7-1.3-1-0.6l-1.3,2.7l-1,2
			c-0.2,0.3-0.5,0.8-0.6,1.2c0,0.1,0.3-0.1,0.1-0.1c-0.2,0.1-0.4,0.1-0.5,0.2l-1.8,0.8L74.9,95l0.8,0.3l-1.2-5l-0.1,0.6l1.8-2.2
			c0.4-0.5,1-0.9,0.8-1.6c-0.3-1.8-0.9-3.6-1.3-5.3C75.6,81,74.5,81.3,74.7,82.1L74.7,82.1z"/>
		<path class="st10" d="M75.8,79.4L75,76.7c-0.2-0.7-1.3-0.4-1.1,0.3l0.8,2.7C74.9,80.4,76,80.1,75.8,79.4z"/>
		<path class="st10" d="M85.1,86.2l2.4-1.5c0.6-0.4,0.1-1.4-0.6-1l-2.4,1.5C83.9,85.5,84.5,86.5,85.1,86.2z"/>
	</g>
</g>
</svg>
