<svg id="WariHash_Logo" data-name="WariHash Logo" xmlns="http://www.w3.org/2000/svg" width="1.0081in" height="1.0081in" viewBox="0 0 72.584 72.584"><defs><style>.cls-1{fill:#fff;}</style></defs><title>2019.08-WariHash-Logo-1.0-White</title><polygon class="cls-1" points="46.925 19.071 35.131 19.071 29.474 25.814 41.267 25.814 46.925 19.071"/><path class="cls-1" d="M57.8942,25.8144l8.0709-9.5509a35.9639,35.9639,0,0,0-6.0717-6.8862L46.101,25.8145Z"/><path class="cls-1" d="M50.0357,15.3638,56.988,7.0784a35.6745,35.6745,0,0,0-8.1666-4.3439l-10.59,12.643Z"/><polygon class="cls-1" points="38.166 29.509 26.373 29.509 20.715 36.252 32.509 36.252 38.166 29.509"/><polygon class="cls-1" points="54.794 29.509 43.001 29.509 37.343 36.252 49.136 36.252 54.794 29.509"/><path class="cls-1" d="M67.9646,19.5743l-7.2725,8.6668a25.6817,25.6817,0,1,1-24.3974-17.68c.3667,0,.7167.0611,1.0793.0762L45.0161,1.53A35.8387,35.8387,0,1,0,67.9646,19.5743Z"/></svg>