<?xml version="1.0" standalone="no"?>
<!DOCTYPE svg PUBLIC "-//W3C//DTD SVG 20010904//EN"
 "http://www.w3.org/TR/2001/REC-SVG-20010904/DTD/svg10.dtd">
<svg version="1.0" xmlns="http://www.w3.org/2000/svg"
 width="1200.000000pt" height="1200.000000pt" viewBox="0 0 1200.000000 1200.000000"
 preserveAspectRatio="xMidYMid meet">
<metadata>
Created by potrace 1.11, written by Peter Selinger 2001-2013
</metadata>
<g transform="translate(0.000000,1200.000000) scale(0.100000,-0.100000)"
fill="#000000" stroke="none">
<path d="M5778 11265 c-2 -1 -57 -6 -123 -10 -66 -4 -136 -9 -155 -10 -72 -6
-308 -37 -380 -50 -14 -3 -38 -7 -55 -10 -47 -7 -226 -45 -265 -55 -19 -5 -46
-11 -60 -14 -54 -11 -117 -27 -160 -41 -25 -7 -99 -30 -165 -51 -247 -76 -529
-190 -775 -315 -146 -74 -252 -131 -260 -139 -3 -3 -25 -16 -50 -29 -25 -13
-78 -46 -119 -73 -41 -26 -75 -48 -77 -48 -7 0 -246 -169 -324 -229 -104 -80
-210 -167 -299 -246 -259 -229 -516 -509 -725 -789 -86 -115 -227 -320 -239
-346 -4 -8 -27 -46 -51 -85 -25 -38 -62 -101 -82 -140 -20 -38 -40 -72 -43
-75 -13 -10 -163 -324 -221 -460 -113 -267 -242 -671 -286 -895 -2 -11 -6 -31
-9 -45 -3 -14 -7 -36 -10 -50 -3 -14 -9 -47 -15 -75 -5 -27 -12 -67 -16 -89
-3 -21 -8 -48 -10 -60 -2 -11 -7 -41 -10 -66 -3 -25 -7 -56 -9 -70 -2 -14 -7
-52 -10 -85 -4 -33 -9 -73 -11 -90 -12 -90 -19 -281 -19 -525 0 -291 7 -423
30 -615 4 -27 8 -66 10 -85 2 -19 6 -48 9 -65 3 -16 11 -59 16 -95 15 -93 18
-107 31 -169 7 -31 12 -62 10 -69 -1 -6 3 -12 9 -12 6 0 8 -4 5 -10 -3 -5 6
-54 20 -107 14 -54 27 -107 29 -118 8 -36 56 -199 70 -235 8 -19 14 -38 15
-42 1 -5 1 -9 2 -10 0 -2 2 -10 4 -18 5 -25 65 -193 80 -225 8 -16 28 -66 46
-110 88 -222 249 -543 372 -740 92 -148 255 -386 314 -460 4 -6 35 -44 68 -85
137 -171 230 -276 395 -440 215 -215 276 -269 525 -460 72 -55 135 -104 140
-108 11 -9 266 -178 300 -199 221 -136 512 -285 735 -375 93 -38 118 -47 125
-48 3 0 18 -6 33 -13 46 -24 401 -142 457 -152 11 -2 83 -20 160 -40 77 -20
158 -38 180 -41 22 -3 54 -9 70 -14 17 -5 53 -12 80 -16 28 -4 57 -9 65 -10 8
-2 35 -6 60 -10 25 -3 56 -8 70 -10 14 -2 50 -6 80 -8 30 -3 55 -6 55 -6 0 -4
144 -17 295 -26 123 -8 502 -7 605 0 163 13 222 18 333 31 97 11 130 16 182
25 30 6 69 12 85 15 17 3 41 8 55 11 13 3 38 7 55 10 36 5 70 12 70 14 0 1 9
3 20 4 11 2 61 13 110 25 50 12 97 24 105 26 8 2 49 13 90 25 41 11 82 23 90
25 107 26 473 162 656 245 138 62 392 193 476 247 21 12 42 23 48 23 5 0 10 5
10 10 0 6 5 10 10 10 9 0 129 71 155 93 6 4 33 22 60 40 28 17 55 35 60 40 6
4 55 40 110 79 224 161 400 312 630 543 149 148 182 184 280 299 44 52 63 74
93 111 4 6 44 57 88 115 81 107 86 114 152 210 20 30 45 64 55 74 9 11 17 23
17 27 0 4 18 34 39 67 22 32 48 74 59 93 117 203 157 279 229 429 46 96 90
189 98 205 31 70 133 332 139 360 1 6 22 69 45 140 23 72 45 141 47 155 3 14
13 54 24 90 10 36 22 81 26 100 4 19 8 37 9 40 1 3 5 23 10 45 4 22 9 47 11
55 13 54 43 213 48 250 3 25 8 56 10 70 9 48 15 97 22 156 3 32 8 73 10 89 13
112 18 270 19 535 0 271 -4 369 -19 515 -3 22 -7 65 -10 95 -6 60 -42 300 -51
340 -3 14 -8 41 -11 60 -3 19 -8 38 -10 41 -2 4 -6 24 -10 45 -3 22 -10 57
-15 79 -6 22 -18 74 -29 115 -23 95 -66 244 -84 290 -8 19 -14 37 -14 40 -1 9
-9 33 -52 155 -58 164 -128 331 -218 519 l-76 158 -21 -25 c-11 -13 -29 -35
-40 -48 -11 -13 -43 -51 -70 -84 -28 -33 -60 -71 -72 -85 -37 -44 -195 -232
-273 -325 -41 -49 -77 -92 -80 -95 -3 -3 -73 -86 -155 -185 -141 -169 -186
-223 -210 -249 -5 -6 -42 -49 -81 -96 l-71 -85 19 -60 c50 -157 105 -389 123
-524 3 -30 8 -63 11 -74 7 -39 22 -169 29 -267 6 -73 6 -440 0 -510 -9 -111
-20 -208 -32 -285 -3 -22 -7 -53 -9 -70 -11 -103 -108 -498 -143 -580 -5 -11
-21 -56 -37 -100 -29 -85 -111 -279 -150 -357 -14 -27 -24 -50 -25 -53 0 -11
-137 -248 -197 -340 -63 -97 -234 -330 -287 -390 -15 -16 -40 -46 -56 -65 -84
-99 -269 -278 -414 -401 -22 -19 -42 -36 -45 -39 -9 -9 -194 -146 -245 -181
-71 -49 -225 -144 -303 -186 -37 -20 -89 -48 -117 -63 -27 -15 -53 -28 -58
-28 -4 -1 -30 -13 -57 -27 -27 -14 -73 -34 -101 -46 -29 -11 -71 -28 -93 -39
-23 -10 -50 -20 -61 -22 -11 -1 -22 -6 -25 -9 -10 -12 -338 -112 -440 -134 -8
-2 -44 -10 -80 -19 -36 -8 -81 -17 -100 -20 -19 -3 -46 -7 -60 -10 -14 -2 -46
-7 -71 -10 -25 -4 -57 -9 -70 -11 -107 -18 -303 -29 -489 -28 -224 1 -341 8
-495 30 -22 3 -56 7 -75 9 -19 1 -35 3 -35 4 0 2 -23 7 -70 14 -22 4 -47 8
-55 11 -8 2 -26 6 -40 9 -133 22 -458 119 -610 181 -30 12 -64 26 -75 30 -11
5 -22 9 -25 9 -3 1 -31 14 -64 29 -32 15 -62 27 -67 27 -5 0 -9 5 -9 10 0 6
-3 9 -7 8 -8 -2 -103 42 -113 52 -3 3 -39 23 -80 44 -144 75 -482 302 -560
377 -8 8 -35 30 -60 50 -173 139 -422 404 -587 624 -111 150 -264 394 -332
535 -15 30 -32 64 -38 75 -58 106 -216 521 -237 625 -3 14 -13 52 -22 85 -20
73 -17 62 -47 215 -14 69 -28 152 -32 185 -4 33 -9 71 -11 85 -2 14 -6 54 -9
90 -4 36 -8 83 -11 105 -5 52 -5 435 0 500 9 98 25 242 32 290 3 17 7 46 9 65
2 19 7 46 10 60 3 14 8 41 11 60 3 19 10 49 15 65 4 17 11 46 14 65 3 19 11
51 17 70 6 19 12 44 14 55 8 58 136 427 155 450 5 5 9 16 9 25 0 13 44 109
133 290 18 36 34 67 37 70 3 3 11 16 18 29 8 13 22 39 33 58 69 123 253 390
330 478 145 166 197 224 285 310 345 341 750 610 1202 798 101 43 356 132 400
141 9 1 24 6 32 10 8 3 44 13 80 21 36 8 84 19 108 25 23 5 59 13 80 16 20 3
40 8 43 9 3 2 28 7 55 10 27 4 60 8 74 11 67 12 117 18 260 32 41 4 165 7 275
6 110 0 202 3 205 8 3 4 24 29 47 55 23 26 71 84 108 128 37 44 84 100 105
125 33 38 119 141 511 610 72 86 108 128 164 194 33 39 82 98 110 131 27 33
53 62 57 63 19 9 4 20 -39 33 -26 7 -54 13 -62 14 -9 0 -21 4 -26 7 -6 3 -32
9 -59 12 -27 4 -52 9 -55 11 -3 1 -24 6 -46 9 -22 4 -47 8 -55 11 -8 2 -33 6
-54 10 -21 3 -48 8 -60 10 -12 3 -41 7 -66 10 -25 2 -56 6 -70 9 -33 6 -118
15 -205 22 -38 2 -90 7 -115 10 -46 6 -576 14 -582 9z"/>
<path d="M7785 10868 c-27 -34 -57 -70 -65 -78 -8 -9 -42 -49 -75 -90 -33 -41
-65 -79 -71 -85 -6 -5 -30 -35 -55 -65 -24 -30 -46 -57 -49 -60 -4 -4 -129
-152 -231 -275 -10 -11 -68 -81 -131 -156 -62 -74 -131 -157 -153 -183 -22
-27 -50 -60 -63 -75 -13 -14 -35 -42 -50 -61 -15 -19 -30 -37 -33 -40 -5 -5
-188 -223 -263 -313 -17 -21 -42 -51 -56 -65 -14 -15 -43 -49 -65 -77 -21 -27
-47 -59 -56 -70 -54 -62 -79 -93 -79 -97 0 -3 389 -4 864 -4 852 1 865 1 883
21 10 11 97 115 193 230 96 116 180 215 186 220 6 6 28 33 50 60 21 28 42 52
45 55 3 3 30 34 60 70 30 36 148 176 262 312 114 136 207 249 207 251 0 3 -24
20 -52 38 -29 18 -55 36 -58 39 -9 11 -150 100 -175 112 -14 6 -25 15 -25 20
0 4 -5 8 -10 8 -6 0 -27 11 -48 23 -34 22 -61 37 -202 114 -25 14 -49 29 -55
33 -5 5 -12 8 -15 8 -11 -1 -145 68 -152 77 -4 6 -8 7 -8 3 0 -6 -109 43 -162
72 -10 6 -22 10 -27 10 -4 0 -29 9 -55 20 -25 12 -49 21 -53 22 -5 1 -26 9
-48 19 -22 10 -44 19 -50 19 -5 0 -32 -28 -60 -62z"/>
<path d="M9355 9823 c-59 -71 -117 -139 -128 -153 -12 -14 -69 -81 -126 -150
-57 -69 -112 -134 -122 -145 -10 -11 -46 -54 -80 -95 -34 -41 -65 -77 -68 -80
-3 -3 -24 -27 -46 -55 -21 -27 -42 -52 -45 -55 -3 -3 -55 -63 -114 -135 -59
-71 -117 -141 -129 -155 -21 -24 -303 -360 -466 -555 -42 -49 -78 -92 -81 -95
-3 -3 -48 -57 -100 -120 -88 -106 -130 -156 -155 -184 -6 -6 -42 -49 -80 -96
-38 -47 -72 -87 -75 -90 -3 -3 -27 -31 -53 -62 l-49 -58 134 -1 c73 0 464 0
868 0 l735 0 24 28 c57 69 97 116 116 137 11 12 36 43 57 67 20 24 44 54 55
65 10 12 36 44 58 70 22 26 47 55 55 64 8 8 39 46 69 83 30 37 58 67 62 67 4
0 10 8 14 18 3 9 28 42 55 72 27 30 53 60 57 65 14 18 108 129 123 145 8 9 33
38 55 65 22 27 50 60 62 74 13 15 26 31 31 36 4 6 33 39 63 75 30 36 91 108
134 160 44 52 84 98 89 102 11 7 -72 136 -161 248 -7 8 -34 43 -62 78 -83 105
-120 149 -226 267 -129 144 -417 425 -435 425 -4 0 -56 -57 -115 -127z"/>
<path d="M5837 8531 c-6 -2 -20 -14 -30 -25 -37 -44 -88 -105 -168 -201 -46
-55 -88 -105 -94 -111 -6 -6 -27 -31 -46 -54 -18 -24 -52 -64 -74 -90 -76 -89
-90 -105 -139 -165 -28 -33 -55 -65 -61 -71 -5 -7 -17 -20 -25 -30 -18 -23
-107 -129 -137 -164 -12 -14 -31 -36 -42 -49 -12 -13 -20 -26 -18 -28 3 -2
1549 -6 1685 -4 45 1 52 6 112 81 19 24 46 56 60 72 14 15 30 34 35 41 77 93
211 253 215 257 4 3 51 59 106 125 96 116 138 166 159 189 6 6 28 34 50 61 22
28 45 55 51 60 6 6 28 31 49 58 l37 47 -38 0 c-643 4 -1677 4 -1687 1z"/>
<path d="M4509 6959 c-30 -37 -47 -57 -92 -109 -12 -14 -78 -93 -147 -175 -68
-83 -127 -152 -130 -155 -3 -3 -25 -30 -50 -60 -25 -30 -53 -64 -63 -75 -10
-11 -44 -51 -75 -90 -31 -38 -64 -76 -72 -85 -8 -9 -31 -36 -51 -61 -20 -24
-53 -64 -73 -87 -20 -24 -36 -47 -36 -50 0 -6 1668 -8 1717 -3 7 0 91 94 186
209 96 114 225 268 288 343 63 74 130 154 149 178 19 23 50 59 68 79 19 20 46
53 60 72 15 19 39 49 54 65 16 17 28 33 28 36 0 3 -389 6 -865 6 l-865 0 -31
-38z"/>
<path d="M6972 6985 c-6 -11 -61 -76 -117 -141 -11 -13 -30 -36 -42 -52 -12
-16 -33 -40 -45 -54 -35 -39 -69 -79 -113 -133 -21 -28 -42 -52 -46 -55 -3 -3
-41 -48 -84 -100 -43 -52 -81 -97 -85 -100 -3 -3 -25 -30 -49 -60 -25 -30 -49
-59 -55 -65 -6 -5 -28 -31 -49 -57 -21 -26 -43 -53 -50 -60 -22 -23 -79 -98
-75 -99 12 -5 1706 -4 1719 0 15 5 46 41 178 200 20 24 41 49 46 55 6 6 44 52
85 101 41 50 77 92 80 95 3 3 25 30 50 60 25 30 47 57 50 60 3 3 64 75 135
160 71 85 146 175 167 199 21 24 38 47 38 51 0 4 -389 7 -865 7 -656 0 -868
-3 -873 -12z"/>
</g>
</svg>
