<svg id="Lockup" xmlns="http://www.w3.org/2000/svg" width="1.7482in" height="0.3279in" viewBox="0 0 125.8739 23.6103"><defs><style>.cls-1{fill:#fff;}</style></defs><title>2019.08-WariHash-Lockup-1.0-White</title><g id="White"><g id="Wordmark"><path class="cls-1" d="M42.6154,15.8161l.1307.8282h.1315l.109-.8282L45.2749,4.5029H47.87L44.2069,19.7617h-2.463L38.3868,8.95l-.1091-.6975H38.147l-.109.6975L34.6809,19.7617h-2.463L28.5553,4.5029H31.15l2.3324,11.4006.0873.7408H33.7l.1307-.7408,3.4-11.4006h1.962Z"/><path class="cls-1" d="M56.609,9.6688l.109-.0433V8.8622H59.16v10.9H56.718V18.65l-.1307-.0433A4.418,4.418,0,0,1,53.2086,19.98a5.4406,5.4406,0,0,1-5.2533-5.6678,5.5341,5.5341,0,0,1,5.4714-5.6679A4.7051,4.7051,0,0,1,56.609,9.6688Zm.109,6.6051V11.6091a4.9165,4.9165,0,0,0-2.9866-.9156,3.461,3.461,0,0,0-3.3346,3.6185A3.474,3.474,0,0,0,53.7314,17.93,3.1639,3.1639,0,0,0,56.718,16.2739Z"/><path class="cls-1" d="M61.9489,8.8622H64.39V10.105l.1307.0433a4.0844,4.0844,0,0,1,3.1607-1.5042h.3055v2.2242h-.5236a4.2349,4.2349,0,0,0-3.0733,1.286v7.629H61.9489Z"/><path class="cls-1" d="M71.4958,4.35a1.2909,1.2909,0,0,1,1.4168,1.2427,1.42,1.42,0,0,1-2.8119,0A1.2967,1.2967,0,0,1,71.4958,4.35ZM70.2971,8.8622h2.4407v10.9H70.2971Z"/><path class="cls-1" d="M86.0562,12.9826H78.7977v6.7791H76.3562V4.5029h2.4415v6.43h7.2585v-6.43h2.4415V19.7617H86.0562Z"/><path class="cls-1" d="M99.2,9.6688l.1091-.0433V8.8622H101.75v10.9H99.309V18.65l-.1307-.0433A4.4182,4.4182,0,0,1,95.8,19.98a5.4406,5.4406,0,0,1-5.2533-5.6678,5.534,5.534,0,0,1,5.4713-5.6679A4.7051,4.7051,0,0,1,99.2,9.6688Zm.1091,6.6051V11.6091a4.917,4.917,0,0,0-2.9867-.9156,3.461,3.461,0,0,0-3.3346,3.6185A3.474,3.474,0,0,0,96.3223,17.93,3.1641,3.1641,0,0,0,99.309,16.2739Z"/><path class="cls-1" d="M104.5182,17.2329a9.28,9.28,0,0,0,3.1173.6542c1.0456,0,1.9837-.3929,1.9837-1.3077,0-.6759-.4362-1.1121-2.0277-1.4825-2.0711-.4795-3.4878-1.4608-3.4878-3.1606,0-2.2017,1.962-3.2922,4.0979-3.2922a8.8731,8.8731,0,0,1,3.4878.785l-.4578,1.94a8.3332,8.3332,0,0,0-2.9426-.6543c-.9156,0-1.7439.4146-1.7439,1.2212,0,.5668.4145,1.0246,1.9187,1.351,2.2233.4795,3.5744,1.4392,3.5744,3.248,0,2.3324-2.07,3.4228-4.2944,3.4228a10.578,10.578,0,0,1-3.7051-.7192Z"/><path class="cls-1" d="M114.021,3.8487h2.4414v6.3437l.1307.0433a4.8407,4.8407,0,0,1,3.8149-1.5916c2.1576,0,3.9456,1.57,3.9456,4.6648v6.4528h-2.4414V13.3963c0-1.8962-1.0688-2.7028-2.3765-2.7028a3.594,3.594,0,0,0-3.0733,1.6132v7.455H114.021Z"/></g><g id="Logo"><polygon class="cls-1" points="16.527 6.274 12.741 6.274 10.953 8.445 14.738 8.445 16.527 6.274"/><polygon class="cls-1" points="11.967 11.805 13.756 9.634 9.974 9.634 8.185 11.805 11.967 11.805"/><polygon class="cls-1" points="13.514 11.805 17.292 11.805 19.081 9.634 15.302 9.634 13.514 11.805"/><path class="cls-1" d="M23.2443,6.4592l-2.3212,2.817a8.2767,8.2767,0,1,1-15.8841,4.64l-.1295-.01.0976-.1185a8.2769,8.2769,0,0,1,8.0352-10.258c.1363,0,.2707.0079.4054.0144L15.8471.6317a11.5228,11.5228,0,1,0,7.3972,5.8275Z"/><path class="cls-1" d="M20.062,8.4448,22.5965,5.37a11.5788,11.5788,0,0,0-1.9548-2.2171L16.284,8.4449Z"/><path class="cls-1" d="M17.5086,5.08l2.1977-2.6675A11.4869,11.4869,0,0,0,17.0769,1.014l-3.354,4.0705Z"/></g></g></svg>